<?xml version="1.0" encoding="UTF-8" standalone="no"?>
<svg
   xmlns:dc="http://purl.org/dc/elements/1.1/"
   xmlns:cc="http://creativecommons.org/ns#"
   xmlns:rdf="http://www.w3.org/1999/02/22-rdf-syntax-ns#"
   xmlns:svg="http://www.w3.org/2000/svg"
   xmlns="http://www.w3.org/2000/svg"
   xmlns:sodipodi="http://sodipodi.sourceforge.net/DTD/sodipodi-0.dtd"
   xmlns:inkscape="http://www.inkscape.org/namespaces/inkscape"
   version="1.1"
   x="0px"
   y="0px"
   viewBox="0 0 100 125"
   enable-background="new 0 0 100 100"
   xml:space="preserve"
   id="svg12"
   sodipodi:docname="BEMO logo.svg"
   inkscape:version="0.92.4 (5da689c313, 2019-01-14)"
   inkscape:export-filename="G:\Kuliah\APPL\SKPL\BEMO logo.png"
   inkscape:export-xdpi="300"
   inkscape:export-ydpi="300"><metadata
   id="metadata18"><rdf:RDF><cc:Work
       rdf:about=""><dc:format>image/svg+xml</dc:format><dc:type
         rdf:resource="http://purl.org/dc/dcmitype/StillImage" /><dc:title /></cc:Work></rdf:RDF></metadata><defs
   id="defs16" /><sodipodi:namedview
   pagecolor="#ffffff"
   bordercolor="#666666"
   borderopacity="1"
   objecttolerance="10"
   gridtolerance="10"
   guidetolerance="10"
   inkscape:pageopacity="0"
   inkscape:pageshadow="2"
   inkscape:window-width="1920"
   inkscape:window-height="1027"
   id="namedview14"
   showgrid="false"
   showborder="false"
   inkscape:zoom="0.70710678"
   inkscape:cx="-209.75304"
   inkscape:cy="14.162655"
   inkscape:window-x="-8"
   inkscape:window-y="-8"
   inkscape:window-maximized="1"
   inkscape:current-layer="svg12"
   inkscape:object-paths="false"
   inkscape:object-nodes="false"><inkscape:grid
     type="xygrid"
     id="grid934" /></sodipodi:namedview>

<g
   style="font-style:normal;font-weight:normal;font-size:69.17125702px;line-height:1.25;font-family:sans-serif;letter-spacing:0px;word-spacing:0px;fill:#000000;fill-opacity:1;stroke:none;stroke-width:4.32320356"
   id="g845" /><g
   id="g911"
   inkscape:export-filename="G:\Kuliah\APPL\SKPL\g911.png"
   inkscape:export-xdpi="300"
   inkscape:export-ydpi="300"><path
     id="path832"
     style="font-style:normal;font-weight:normal;font-size:69.17125702px;line-height:1.25;font-family:'The Bold Font';letter-spacing:0px;word-spacing:0px;fill:#000000;fill-opacity:1;stroke:none;stroke-width:8.37640285;font-variant:normal;font-stretch:normal;-inkscape-font-specification:'The Bold Font'"
     d="m 266.49827,-31.921424 q 6.29904,4.690785 9.91766,11.391908 3.61859,6.567098 3.61859,14.3404002 0,6.96916831 -2.94849,13.1341991 -2.94848,6.0310107 -8.17536,10.5877747 -5.09286,4.556761 -11.92799,7.237212 -6.83516,2.546425 -14.60846,2.546425 H 213.5594 v -98.774541 l 26.13437,0.13402 q 6.16503,0 11.65995,2.144359 5.49492,2.144361 9.64961,5.896989 4.1547,3.618606 6.43308,8.577436 2.41242,4.824807 2.41242,10.45375 0,6.701123 -3.35056,12.330068 z M 236.20919,-48.67423 v 8.979504 h 3.61862 q 3.35055,-0.13402 5.36089,-1.608269 2.01032,-1.474248 2.01032,-2.948495 0,-1.340223 -2.01032,-2.81447 -2.01034,-1.60827 -5.49493,-1.60827 z m 6.16503,53.2069106 q 2.9485,0 5.62894,-0.8041356 2.81448,-0.9381575 4.82482,-2.4124028 2.14436,-1.47424719 3.35056,-3.3505622 1.2062,-2.0103369 1.2062,-4.1546958 0,-2.1443589 -1.2062,-4.1546962 -1.2062,-2.010337 -3.35056,-3.484582 -2.01034,-1.474247 -4.82482,-2.278383 -2.68044,-0.938157 -5.62894,-0.938157 h -2.41239 -0.26806 -3.48458 V 4.5326806 Z"
     inkscape:connector-curvature="0" /><path
     inkscape:connector-curvature="0"
     id="path834"
     style="font-style:normal;font-weight:normal;font-size:69.17125702px;line-height:1.25;font-family:'The Bold Font';letter-spacing:0px;word-spacing:0px;fill:#000000;fill-opacity:1;stroke:none;stroke-width:8.37640285;font-variant:normal;font-stretch:normal;-inkscape-font-specification:'The Bold Font'"
     d="m 353.68715,-48.406186 h -40.47478 v 14.876492 h 32.83551 v 22.649793 H 313.21237 V 4.6667025 h 40.47478 V 27.316495 h -63.12457 v -98.238451 l 63.12457,-0.13402 z" /><path
     inkscape:connector-curvature="0"
     id="path836"
     style="font-style:normal;font-weight:normal;font-size:69.17125702px;line-height:1.25;font-family:'The Bold Font';letter-spacing:0px;word-spacing:0px;fill:#000000;fill-opacity:1;stroke:none;stroke-width:8.37640285;font-variant:normal;font-stretch:normal;-inkscape-font-specification:'The Bold Font'"
     d="m 434.87642,-71.19 h 23.31991 l 5.76298,98.506495 H 441.3095 l -2.4124,-40.206733 -13.67029,40.206733 h -22.64979 l -14.47443,-41.815002 -2.68044,41.815002 H 362.63834 L 368.93738,-71.19 h 23.3199 l 21.57763,61.6503239 z" /><path
     inkscape:connector-curvature="0"
     id="path838"
     style="font-style:normal;font-weight:normal;font-size:69.17125702px;line-height:1.25;font-family:'The Bold Font';letter-spacing:0px;word-spacing:0px;fill:#000000;fill-opacity:1;stroke:none;stroke-width:8.37640285;font-variant:normal;font-stretch:normal;-inkscape-font-specification:'The Bold Font'"
     d="m 517.1295,-71.19 q 10.18572,0 19.16521,3.88665 8.97952,3.88665 15.68063,10.587773 6.70112,6.5671 10.58778,15.546603 3.88666,8.979504 3.88666,19.16521 0,10.185705 -3.88666,19.1652104 -3.88666,8.9795033 -10.58778,15.6806256 -6.70111,6.567099 -15.68063,10.453751 -8.97949,3.88665 -19.16521,3.88665 -10.18569,0 -19.16521,-3.88665 -8.97949,-3.886652 -15.68061,-10.453751 -6.5671,-6.7011223 -10.45375,-15.6806256 -3.88666,-8.9795054 -3.88666,-19.1652104 0,-10.185706 3.88666,-19.16521 3.88665,-8.979503 10.45375,-15.546603 6.70112,-6.701123 15.68061,-10.587773 8.97952,-3.88665 19.16521,-3.88665 z m 0,75.7226806 q 5.49494,0 10.31974,-2.010337 4.82481,-2.14435887 8.44341,-5.762965 3.6186,-3.6186061 5.62894,-8.4434136 2.14436,-4.824809 2.14436,-10.319729 0,-5.494921 -2.14436,-10.319728 -2.01034,-4.824808 -5.62894,-8.443414 -3.6186,-3.618606 -8.44341,-5.628943 -4.8248,-2.144359 -10.31974,-2.144359 -5.49492,0 -10.31971,2.144359 -4.82482,2.010337 -8.44342,5.628943 -3.61862,3.618606 -5.76298,8.443414 -2.01031,4.824807 -2.01031,10.319728 0,5.49492 2.01031,10.319729 2.14436,4.8248075 5.76298,8.4434136 3.6186,3.61860613 8.44342,5.762965 4.82479,2.010337 10.31971,2.010337 z" /><path
     inkscape:connector-curvature="0"
     d="m 262.62318,-35.796521 q 6.29904,4.690797 9.91766,11.391914 3.61859,6.567097 3.61859,14.340393 0,6.9691759 -2.94849,13.1342125 -2.94848,6.0309973 -8.17536,10.5877555 -5.09286,4.556777 -11.92799,7.237216 -6.83516,2.546438 -14.60846,2.546438 H 209.68431 V -75.33314 l 26.13437,0.13402 q 6.16503,0 11.65995,2.144359 5.49492,2.144361 9.64961,5.896989 4.1547,3.618606 6.43308,8.577435 2.41242,4.824806 2.41242,10.453743 0,6.701136 -3.35056,12.330073 z M 232.3341,-52.549332 v 8.979515 h 3.61861 q 3.35056,-0.134078 5.3609,-1.608279 2.01032,-1.474239 2.01032,-2.948479 0,-1.340239 -2.01032,-2.814478 -2.01034,-1.608279 -5.49493,-1.608279 z m 6.16503,53.20691227 q 2.9485,0 5.62894,-0.80412005 2.81448,-0.93815942 4.82482,-2.41241832 2.14436,-1.4742394 3.35056,-3.3505583 1.2062,-2.0103389 1.2062,-4.1546976 0,-2.144359 -1.2062,-4.154698 -1.2062,-2.010339 -3.35056,-3.484578 -2.01034,-1.47424 -4.82482,-2.278379 -2.68044,-0.93816 -5.62894,-0.93816 h -2.4124 -0.26805 -3.48458 V 0.65758027 Z"
     style="font-style:normal;font-weight:normal;font-size:69.17125702px;line-height:1.25;font-family:'The Bold Font';letter-spacing:0px;word-spacing:0px;fill:#e7ab3c;fill-opacity:1;stroke:#000000;stroke-width:0.73230058;font-variant:normal;font-stretch:normal;-inkscape-font-specification:'The Bold Font';stroke-miterlimit:4;stroke-dasharray:none"
     id="path866" /><path
     d="m 349.81206,-52.281276 h -40.47478 v 14.876492 h 32.8355 v 22.649792 h -32.8355 V 0.7916119 h 40.47478 V 23.441404 h -63.12457 v -98.238451 l 63.12457,-0.13402 z"
     style="font-style:normal;font-weight:normal;font-size:69.17125702px;line-height:1.25;font-family:'The Bold Font';letter-spacing:0px;word-spacing:0px;fill:#e7ab3c;fill-opacity:1;stroke:#000000;stroke-width:0.73230058;font-variant:normal;font-stretch:normal;-inkscape-font-specification:'The Bold Font';stroke-miterlimit:4;stroke-dasharray:none"
     id="path922"
     inkscape:connector-curvature="0" /><path
     d="m 431.00133,-75.06509 h 23.31991 l 5.76298,98.506494 h -22.64981 l -2.4124,-40.206733 -13.67029,40.206733 h -22.64979 l -14.47443,-41.815002 -2.68044,41.815002 h -22.78381 l 6.29904,-98.506494 h 23.3199 l 21.57763,61.650323 z"
     style="font-style:normal;font-weight:normal;font-size:69.17125702px;line-height:1.25;font-family:'The Bold Font';letter-spacing:0px;word-spacing:0px;fill:#e7ab3c;fill-opacity:1;stroke:#000000;stroke-width:0.73230058;font-variant:normal;font-stretch:normal;-inkscape-font-specification:'The Bold Font';stroke-miterlimit:4;stroke-dasharray:none"
     id="path924"
     inkscape:connector-curvature="0" /><path
     d="m 513.25441,-75.06509 q 10.18572,0 19.16521,3.88665 8.97952,3.88665 15.68063,10.587772 6.70112,6.567101 10.58778,15.546604 3.88666,8.979503 3.88666,19.16521 0,10.185705 -3.88666,19.1652098 -3.88666,8.9795033 -10.58778,15.6806258 -6.70111,6.5670984 -15.68063,10.4537504 -8.97949,3.88665 -19.16521,3.88665 -10.18569,0 -19.16521,-3.88665 -8.97949,-3.886652 -15.68061,-10.4537504 -6.5671,-6.7011225 -10.45376,-15.6806258 -3.88665,-8.9795048 -3.88665,-19.1652098 0,-10.185707 3.88665,-19.16521 3.88666,-8.979503 10.45376,-15.546604 6.70112,-6.701122 15.68061,-10.587772 8.97952,-3.88665 19.16521,-3.88665 z m 0,75.72267996 q 5.49494,0 10.31974,-2.01033696 4.82481,-2.1443589 8.44341,-5.762965 3.6186,-3.618606 5.62894,-8.443414 2.14436,-4.824809 2.14436,-10.319728 0,-5.494921 -2.14436,-10.319729 -2.01034,-4.824807 -5.62894,-8.443413 -3.6186,-3.618606 -8.44341,-5.628943 -4.8248,-2.144359 -10.31974,-2.144359 -5.49492,0 -10.31971,2.144359 -4.82482,2.010337 -8.44342,5.628943 -3.61862,3.618606 -5.76298,8.443413 -2.01032,4.824808 -2.01032,10.319729 0,5.494919 2.01032,10.319728 2.14436,4.824808 5.76298,8.443414 3.6186,3.6186061 8.44342,5.762965 4.82479,2.01033696 10.31971,2.01033696 z"
     style="font-style:normal;font-weight:normal;font-size:69.17125702px;line-height:1.25;font-family:'The Bold Font';letter-spacing:0px;word-spacing:0px;fill:#e7ab3c;fill-opacity:1;stroke:#000000;stroke-width:0.73230058;font-variant:normal;font-stretch:normal;-inkscape-font-specification:'The Bold Font';stroke-miterlimit:4;stroke-dasharray:none"
     id="path926"
     inkscape:connector-curvature="0" /><path
     inkscape:connector-curvature="0"
     id="path938"
     d="m 213.5594,27.316495 h 0.53073 V 23.06838 h -4.77574 v 0.741718 z"
     style="font-style:normal;font-weight:normal;font-size:69.17125702px;line-height:1.25;font-family:sans-serif;letter-spacing:0px;word-spacing:0px;fill:#000000;fill-opacity:1;stroke:none;stroke-width:1.9375453px;stroke-linecap:butt;stroke-linejoin:miter;stroke-opacity:1" /><path
     inkscape:connector-curvature="0"
     id="path940"
     d="m 353.68715,-71.055976 v 0.660501 h -4.25646 v -4.904411 h 0.74929 z"
     style="font-style:normal;font-weight:normal;font-size:69.17125702px;line-height:1.25;font-family:sans-serif;letter-spacing:0px;word-spacing:0px;fill:#000000;fill-opacity:1;stroke:none;stroke-width:1.9375453px;stroke-linecap:butt;stroke-linejoin:miter;stroke-opacity:1" /><path
     inkscape:connector-curvature="0"
     id="path944"
     d="m 346.04788,-33.529694 v 0.505239 h -4.20085 v -4.750627 h 0.68116 z"
     style="font-style:normal;font-weight:normal;font-size:69.17125702px;line-height:1.25;font-family:sans-serif;letter-spacing:0px;word-spacing:0px;fill:#000000;fill-opacity:1;stroke:none;stroke-width:1.9375453px;stroke-linecap:butt;stroke-linejoin:miter;stroke-opacity:1" /><path
     inkscape:connector-curvature="0"
     id="path946"
     d="m 353.68715,4.6667025 v 0.3961311 h -4.22617 V 0.42331942 h 0.719 z"
     style="font-style:normal;font-weight:normal;font-size:69.17125702px;line-height:1.25;font-family:sans-serif;letter-spacing:0px;word-spacing:0px;fill:#000000;fill-opacity:1;stroke:none;stroke-width:1.9375453px;stroke-linecap:butt;stroke-linejoin:miter;stroke-opacity:1" /><path
     inkscape:connector-curvature="0"
     id="path948"
     d="m 290.56258,27.316495 h 0.38329 v -4.083214 h -4.62393 v 0.567286 z"
     style="font-style:normal;font-weight:normal;font-size:69.17125702px;line-height:1.25;font-family:sans-serif;letter-spacing:0px;word-spacing:0px;fill:#000000;fill-opacity:1;stroke:none;stroke-width:1.9375453px;stroke-linecap:butt;stroke-linejoin:miter;stroke-opacity:1" /><path
     inkscape:connector-curvature="0"
     id="path950"
     d="m 392.25728,-71.19 0.14493,0.41434 h -2.86594 l -1.24826,-4.658578 h 0.34761 z"
     style="font-style:normal;font-weight:normal;font-size:69.17125702px;line-height:1.25;font-family:sans-serif;letter-spacing:0px;word-spacing:0px;fill:#000000;fill-opacity:1;stroke:none;stroke-width:1.9375453px;stroke-linecap:butt;stroke-linejoin:miter;stroke-opacity:1" /><path
     inkscape:connector-curvature="0"
     id="path952"
     d="m 458.19633,-71.19 0.0213,0.363309 h -3.9778 v -4.60186 h 0.42384 z"
     style="font-style:normal;font-weight:normal;font-size:69.17125702px;line-height:1.25;font-family:sans-serif;letter-spacing:0px;word-spacing:0px;fill:#000000;fill-opacity:1;stroke:none;stroke-width:1.9375453px;stroke-linecap:butt;stroke-linejoin:miter;stroke-opacity:1" /><path
     inkscape:connector-curvature="0"
     id="path954"
     d="m 362.63834,27.316495 h 0.54439 v -4.127018 h -4.74547 l -0.0605,0.613053 z"
     style="font-style:normal;font-weight:normal;font-size:69.17125702px;line-height:1.25;font-family:sans-serif;letter-spacing:0px;word-spacing:0px;fill:#000000;fill-opacity:1;stroke:none;stroke-width:1.9375453px;stroke-linecap:butt;stroke-linejoin:miter;stroke-opacity:1" /><path
     inkscape:connector-curvature="0"
     id="path956"
     d="m 402.57702,27.316495 h 0.28755 l -1.37748,-4.051332 h -3.07283 l 0.0302,0.537367 z"
     style="font-style:normal;font-weight:normal;font-size:69.17125702px;line-height:1.25;font-family:sans-serif;letter-spacing:0px;word-spacing:0px;fill:#000000;fill-opacity:1;stroke:none;stroke-width:1.9375453px;stroke-linecap:butt;stroke-linejoin:miter;stroke-opacity:1" /><path
     inkscape:connector-curvature="0"
     id="path958"
     d="m 441.3095,27.316495 h 0.51327 v -3.890551 h -4.68814 l -0.0535,0.385328 z"
     style="font-style:normal;font-weight:normal;font-size:69.17125702px;line-height:1.25;font-family:sans-serif;letter-spacing:0px;word-spacing:0px;fill:#000000;fill-opacity:1;stroke:none;stroke-width:1.9375453px;stroke-linecap:butt;stroke-linejoin:miter;stroke-opacity:1" /><rect
     y="59.145584"
     x="51.143654"
     height="0.21076292"
     width="523.34802"
     id="rect987"
     style="font-style:normal;font-weight:normal;font-size:69.17125702px;line-height:1.25;font-family:sans-serif;letter-spacing:0px;word-spacing:0px;fill:#000000;fill-opacity:1;stroke:#000000;stroke-width:12.18494606;opacity:1;fill-rule:evenodd;stroke-linecap:round;stroke-linejoin:round;stroke-miterlimit:4;stroke-dasharray:none;stroke-opacity:1;paint-order:normal" /><g
     transform="matrix(1.9505193,0,0,1.9505193,-43.919147,-61.274739)"
     id="g985"><path
       d="m 72.849258,28.601363 c 0,1.657 -1.343,3 -3,3 h -12 c -1.657,0 -3,-1.343 -3,-3 0,-3.309 -2.691,-6 -6,-6 -1.657,0 -3,-1.343 -3,-3 0,-1.657 1.343,-3 3,-3 5.581,0 10.285,3.831 11.621,9 h 9.379 c 1.657,0 3,1.343 3,3 z"
       id="path4"
       inkscape:connector-curvature="0"
       style="fill:#000000;fill-opacity:1;stroke-width:0.75590551;stroke-miterlimit:4;stroke-dasharray:none" /><path
       d="m 72.849258,40.601363 c 0,1.657 -1.343,3 -3,3 h -9.274 c 1.95,7.69 -6.384,13.95 -13.226,9.992 -1.434,-0.829 -1.925,-2.665 -1.096,-4.099 0.829,-1.434 2.665,-1.923 4.099,-1.096 3.45,1.991 6.388,-3.238 2.997,-5.202 -1.175,-0.68 -1.746,-2.062 -1.395,-3.374 0.351,-1.312 1.541,-2.221 2.898,-2.221 h 14.997 c 1.657,0 3,1.343 3,3 z"
       id="path6"
       inkscape:connector-curvature="0"
       style="fill:#000000;fill-opacity:1;stroke-width:0.75590551;stroke-miterlimit:4;stroke-dasharray:none" /><path
       id="path980"
       d="m 84.849258,19.601363 h 6.48 c 4.386,0 8.536997,-1.91 11.389002,-5.238 l 10.816,-12.618 c 1.713,-1.998 4.204,-3.144 6.835,-3.144 h 9.48 v -6 h -9.48 c -4.386,0 -8.537,1.91 -11.389,5.238 l -10.817002,12.618 c -1.712,1.998 -4.203,3.144 -6.834,3.144 h -6.48 c -4.963,0 -9,4.037 -9,9 v 12 c 0,4.963 4.037,9 9,9 h 9 c 0,8.271 6.729002,15 15.000002,15 8.271,0 15,-6.729 15,-15 h 6 v -6 h -7.271 c -2.321,-5.288 -7.593,-9 -13.729,-9 -6.136,0 -11.407002,3.712 -13.729002,9 h -10.271 c -1.654,0 -3,-1.346 -3,-3 v -12 c 0,-1.654 1.346,-3 3,-3 z m 24.000002,15 c 4.963,0 9,4.037 9,9 0,4.963 -4.037,9 -9,9 -4.963,0 -9.000005,-4.037 -9.000005,-9 0,-4.963 4.037005,-9 9.000005,-9 z"
       inkscape:connector-curvature="0"
       style="fill:#000000;fill-opacity:1;stroke-width:0.75590551;stroke-miterlimit:4;stroke-dasharray:none" /></g></g></svg>